<svg xmlns="http://www.w3.org/2000/svg" width="19" height="19" viewBox="0 0 19 19">
  <title>
    Instagram
  </title>
  <desc>
    Created with Sketch.
  </desc>
  <path fill="#B88A1A" fill-rule="evenodd" d="M104.741538,1 L90.2584622,1 C89.0110738,1 88,2.00848267 88,3.25327987 L88,17.7467201 C88,18.9909991 89.0110738,20 90.2584622,20 L104.741538,20 C105.988926,20 107,18.9909991 107,17.7467201 L107,3.25327987 C107,2.00848267 105.988926,1 104.741538,1 L104.741538,1 Z M101.656493,3.9684423 C101.656493,3.64091864 101.922347,3.37506478 102.24987,3.37506478 L104.031039,3.37506478 C104.359081,3.37506478 104.624935,3.64091864 104.624935,3.9684423 L104.624935,5.75012956 C104.624935,6.07765322 104.359081,6.34350708 104.031039,6.34350708 L102.24987,6.34350708 C101.922347,6.34350708 101.656493,6.07765322 101.656493,5.75012956 L101.656493,3.9684423 L101.656493,3.9684423 Z M97.5220249,6.8767695 C99.5400267,6.8767695 101.17609,8.50920547 101.17609,10.5220249 C101.17609,12.5353626 99.5400267,14.1672804 97.5220249,14.1672804 C95.5045414,14.1672804 93.8684778,12.5353626 93.8684778,10.5220249 C93.8684778,8.50920547 95.5045414,6.8767695 97.5220249,6.8767695 L97.5220249,6.8767695 Z M105.218831,17.6249352 C105.218831,17.9524589 104.952977,18.218831 104.624935,18.218831 L90.3750648,18.218831 C90.0470229,18.218831 89.781169,17.9524589 89.781169,17.6249352 L89.781169,8.71857186 L92.1562338,8.71857186 C91.8468483,9.16373456 91.7421651,9.99446308 91.7421651,10.5220249 C91.7421651,13.7013883 94.3354063,16.2884107 97.5220249,16.2884107 C100.709162,16.2884107 103.302403,13.7013883 103.302403,10.5220249 C103.302403,9.99446308 103.227259,9.1766904 102.843766,8.71857186 L105.218831,8.71857186 L105.218831,17.6249352 L105.218831,17.6249352 Z" transform="translate(-88 -1)"/>
</svg>
